<svg id="visual" viewBox="0 0 900 600" width="900" height="600" xmlns="http://www.w3.org/2000/svg" xmlns:xlink="http://www.w3.org/1999/xlink" version="1.1"><rect x="0" y="0" width="900" height="600" fill="#f9f9f9"></rect><defs><linearGradient id="grad1_0" x1="33.3%" y1="100%" x2="100%" y2="0%"><stop offset="20%" stop-color="#f69709" stop-opacity="1"></stop><stop offset="80%" stop-color="#f69709" stop-opacity="1"></stop></linearGradient></defs><defs><linearGradient id="grad1_1" x1="33.3%" y1="100%" x2="100%" y2="0%"><stop offset="20%" stop-color="#f69709" stop-opacity="1"></stop><stop offset="80%" stop-color="#feaf56" stop-opacity="1"></stop></linearGradient></defs><defs><linearGradient id="grad1_2" x1="33.3%" y1="100%" x2="100%" y2="0%"><stop offset="20%" stop-color="#ffc78d" stop-opacity="1"></stop><stop offset="80%" stop-color="#feaf56" stop-opacity="1"></stop></linearGradient></defs><defs><linearGradient id="grad1_3" x1="33.3%" y1="100%" x2="100%" y2="0%"><stop offset="20%" stop-color="#ffc78d" stop-opacity="1"></stop><stop offset="80%" stop-color="#ffe0c2" stop-opacity="1"></stop></linearGradient></defs><defs><linearGradient id="grad1_4" x1="33.3%" y1="100%" x2="100%" y2="0%"><stop offset="20%" stop-color="#f9f9f9" stop-opacity="1"></stop><stop offset="80%" stop-color="#ffe0c2" stop-opacity="1"></stop></linearGradient></defs><defs><linearGradient id="grad2_0" x1="0%" y1="100%" x2="66.7%" y2="0%"><stop offset="20%" stop-color="#f69709" stop-opacity="1"></stop><stop offset="80%" stop-color="#f69709" stop-opacity="1"></stop></linearGradient></defs><defs><linearGradient id="grad2_1" x1="0%" y1="100%" x2="66.7%" y2="0%"><stop offset="20%" stop-color="#feaf56" stop-opacity="1"></stop><stop offset="80%" stop-color="#f69709" stop-opacity="1"></stop></linearGradient></defs><defs><linearGradient id="grad2_2" x1="0%" y1="100%" x2="66.7%" y2="0%"><stop offset="20%" stop-color="#feaf56" stop-opacity="1"></stop><stop offset="80%" stop-color="#ffc78d" stop-opacity="1"></stop></linearGradient></defs><defs><linearGradient id="grad2_3" x1="0%" y1="100%" x2="66.7%" y2="0%"><stop offset="20%" stop-color="#ffe0c2" stop-opacity="1"></stop><stop offset="80%" stop-color="#ffc78d" stop-opacity="1"></stop></linearGradient></defs><defs><linearGradient id="grad2_4" x1="0%" y1="100%" x2="66.7%" y2="0%"><stop offset="20%" stop-color="#ffe0c2" stop-opacity="1"></stop><stop offset="80%" stop-color="#f9f9f9" stop-opacity="1"></stop></linearGradient></defs><g transform="translate(900, 600)"><path d="M-513.8 0C-517.6 -59.2 -521.5 -118.3 -488.6 -158.8C-455.8 -199.2 -386.2 -220.9 -341.4 -248C-296.6 -275.2 -276.5 -307.8 -249.2 -343C-221.9 -378.3 -187.4 -416.2 -144.6 -445.1C-101.9 -474 -50.9 -493.9 0 -513.8L0 0Z" fill="#feecde"></path><path d="M-411 0C-414.1 -47.3 -417.2 -94.7 -390.9 -127C-364.6 -159.4 -309 -176.7 -273.1 -198.4C-237.3 -220.2 -221.2 -246.2 -199.4 -274.4C-177.5 -302.6 -149.9 -333 -115.7 -356.1C-81.5 -379.2 -40.8 -395.1 0 -411L0 0Z" fill="#ffd4a7"></path><path d="M-308.3 0C-310.6 -35.5 -312.9 -71 -293.2 -95.3C-273.5 -119.5 -231.7 -132.5 -204.8 -148.8C-178 -165.1 -165.9 -184.7 -149.5 -205.8C-133.1 -227 -112.4 -249.7 -86.8 -267.1C-61.1 -284.4 -30.6 -296.3 0 -308.3L0 0Z" fill="#ffbb72"></path><path d="M-205.5 0C-207.1 -23.7 -208.6 -47.3 -195.5 -63.5C-182.3 -79.7 -154.5 -88.4 -136.6 -99.2C-118.6 -110.1 -110.6 -123.1 -99.7 -137.2C-88.8 -151.3 -74.9 -166.5 -57.8 -178C-40.8 -189.6 -20.4 -197.6 0 -205.5L0 0Z" fill="#faa338"></path><path d="M-102.8 0C-103.5 -11.8 -104.3 -23.7 -97.7 -31.8C-91.2 -39.8 -77.2 -44.2 -68.3 -49.6C-59.3 -55 -55.3 -61.6 -49.8 -68.6C-44.4 -75.7 -37.5 -83.2 -28.9 -89C-20.4 -94.8 -10.2 -98.8 0 -102.8L0 0Z" fill="#f69709"></path></g><g transform="translate(0, 0)"><path d="M513.8 0C433.3 29.4 352.7 58.8 348.1 113.1C343.4 167.4 414.6 246.6 415.7 302C416.7 357.4 347.6 389 287.4 395.6C227.3 402.2 176.2 383.9 129.8 399.4C83.4 415 41.7 464.4 0 513.8L0 0Z" fill="#feecde"></path><path d="M411 0C346.6 23.5 282.2 47 278.5 90.5C274.7 133.9 331.7 197.3 332.5 241.6C333.4 285.9 278 311.2 229.9 316.5C181.8 321.8 141 307.1 103.8 319.6C66.7 332 33.4 371.5 0 411L0 0Z" fill="#ffd4a7"></path><path d="M308.3 0C260 17.6 211.6 35.3 208.9 67.9C206.1 100.4 248.8 148 249.4 181.2C250 214.4 208.5 233.4 172.5 237.4C136.4 241.3 105.7 230.3 77.9 239.7C50 249 25 278.6 0 308.3L0 0Z" fill="#ffbb72"></path><path d="M205.5 0C173.3 11.8 141.1 23.5 139.2 45.2C137.4 67 165.9 98.6 166.3 120.8C166.7 143 139 155.6 115 158.2C90.9 160.9 70.5 153.6 51.9 159.8C33.4 166 16.7 185.8 0 205.5L0 0Z" fill="#faa338"></path><path d="M102.8 0C86.7 5.9 70.5 11.8 69.6 22.6C68.7 33.5 82.9 49.3 83.1 60.4C83.3 71.5 69.5 77.8 57.5 79.1C45.5 80.4 35.2 76.8 26 79.9C16.7 83 8.3 92.9 0 102.8L0 0Z" fill="#f69709"></path></g></svg>