<svg id="visual" viewBox="0 0 900 600" width="900" height="600" xmlns="http://www.w3.org/2000/svg" xmlns:xlink="http://www.w3.org/1999/xlink" version="1.1"><rect x="0" y="0" width="900" height="600" fill="#f9f9f9"></rect><defs><linearGradient id="grad1_0" x1="33.3%" y1="100%" x2="100%" y2="0%"><stop offset="20%" stop-color="#f69709" stop-opacity="1"></stop><stop offset="80%" stop-color="#f69709" stop-opacity="1"></stop></linearGradient></defs><defs><linearGradient id="grad1_1" x1="33.3%" y1="100%" x2="100%" y2="0%"><stop offset="20%" stop-color="#f69709" stop-opacity="1"></stop><stop offset="80%" stop-color="#feaf56" stop-opacity="1"></stop></linearGradient></defs><defs><linearGradient id="grad1_2" x1="33.3%" y1="100%" x2="100%" y2="0%"><stop offset="20%" stop-color="#ffc78d" stop-opacity="1"></stop><stop offset="80%" stop-color="#feaf56" stop-opacity="1"></stop></linearGradient></defs><defs><linearGradient id="grad1_3" x1="33.3%" y1="100%" x2="100%" y2="0%"><stop offset="20%" stop-color="#ffc78d" stop-opacity="1"></stop><stop offset="80%" stop-color="#ffe0c2" stop-opacity="1"></stop></linearGradient></defs><defs><linearGradient id="grad1_4" x1="33.3%" y1="100%" x2="100%" y2="0%"><stop offset="20%" stop-color="#f9f9f9" stop-opacity="1"></stop><stop offset="80%" stop-color="#ffe0c2" stop-opacity="1"></stop></linearGradient></defs><defs><linearGradient id="grad2_0" x1="0%" y1="100%" x2="66.7%" y2="0%"><stop offset="20%" stop-color="#f69709" stop-opacity="1"></stop><stop offset="80%" stop-color="#f69709" stop-opacity="1"></stop></linearGradient></defs><defs><linearGradient id="grad2_1" x1="0%" y1="100%" x2="66.7%" y2="0%"><stop offset="20%" stop-color="#feaf56" stop-opacity="1"></stop><stop offset="80%" stop-color="#f69709" stop-opacity="1"></stop></linearGradient></defs><defs><linearGradient id="grad2_2" x1="0%" y1="100%" x2="66.7%" y2="0%"><stop offset="20%" stop-color="#feaf56" stop-opacity="1"></stop><stop offset="80%" stop-color="#ffc78d" stop-opacity="1"></stop></linearGradient></defs><defs><linearGradient id="grad2_3" x1="0%" y1="100%" x2="66.7%" y2="0%"><stop offset="20%" stop-color="#ffe0c2" stop-opacity="1"></stop><stop offset="80%" stop-color="#ffc78d" stop-opacity="1"></stop></linearGradient></defs><defs><linearGradient id="grad2_4" x1="0%" y1="100%" x2="66.7%" y2="0%"><stop offset="20%" stop-color="#ffe0c2" stop-opacity="1"></stop><stop offset="80%" stop-color="#f9f9f9" stop-opacity="1"></stop></linearGradient></defs><g transform="translate(900, 600)"><path d="M-378.6 0C-342.1 -32.2 -305.6 -64.4 -286.3 -93C-266.9 -121.6 -264.7 -146.7 -261.3 -189.9C-258 -233 -253.5 -294.4 -222.5 -306.3C-191.5 -318.2 -133.9 -280.6 -92.4 -284.4C-50.9 -288.2 -25.4 -333.4 0 -378.6L0 0Z" fill="#feecde"></path><path d="M-302.9 0C-273.7 -25.8 -244.5 -51.5 -229 -74.4C-213.5 -97.3 -211.7 -117.3 -209 -151.9C-206.4 -186.4 -202.8 -235.5 -178 -245C-153.2 -254.5 -107.1 -224.4 -73.9 -227.5C-40.7 -230.5 -20.4 -266.7 0 -302.9L0 0Z" fill="#ffd4a7"></path><path d="M-227.1 0C-205.3 -19.3 -183.4 -38.6 -171.8 -55.8C-160.1 -73 -158.8 -88 -156.8 -113.9C-154.8 -139.8 -152.1 -176.6 -133.5 -183.8C-114.9 -190.9 -80.3 -168.3 -55.4 -170.6C-30.5 -172.9 -15.3 -200 0 -227.1L0 0Z" fill="#ffbb72"></path><path d="M-151.4 0C-136.8 -12.9 -122.3 -25.8 -114.5 -37.2C-106.8 -48.7 -105.9 -58.7 -104.5 -75.9C-103.2 -93.2 -101.4 -117.8 -89 -122.5C-76.6 -127.3 -53.6 -112.2 -37 -113.7C-20.4 -115.3 -10.2 -133.4 0 -151.4L0 0Z" fill="#faa338"></path><path d="M-75.7 0C-68.4 -6.4 -61.1 -12.9 -57.3 -18.6C-53.4 -24.3 -52.9 -29.3 -52.3 -38C-51.6 -46.6 -50.7 -58.9 -44.5 -61.3C-38.3 -63.6 -26.8 -56.1 -18.5 -56.9C-10.2 -57.6 -5.1 -66.7 0 -75.7L0 0Z" fill="#f69709"></path></g><g transform="translate(0, 0)"><path d="M378.6 0C328.2 22.7 277.8 45.5 275.8 89.6C273.8 133.7 320.2 199.2 306.3 222.5C292.3 245.8 218 227 179.9 247.6C141.7 268.2 139.8 328.2 115.9 356.6C91.9 385.1 46 381.8 0 378.6L0 0Z" fill="#feecde"></path><path d="M302.9 0C262.6 18.2 222.2 36.4 220.6 71.7C219.1 107 256.2 159.4 245 178C233.9 196.7 174.4 181.6 143.9 198C113.4 214.5 111.9 262.6 92.7 285.3C73.6 308 36.8 305.5 0 302.9L0 0Z" fill="#ffd4a7"></path><path d="M227.1 0C196.9 13.6 166.7 27.3 165.5 53.8C164.3 80.2 192.1 119.5 183.8 133.5C175.4 147.5 130.8 136.2 107.9 148.5C85 160.9 83.9 196.9 69.5 214C55.2 231 27.6 229.1 0 227.1L0 0Z" fill="#ffbb72"></path><path d="M151.4 0C131.3 9.1 111.1 18.2 110.3 35.8C109.5 53.5 128.1 79.7 122.5 89C116.9 98.3 87.2 90.8 71.9 99C56.7 107.3 55.9 131.3 46.4 142.7C36.8 154 18.4 152.7 0 151.4L0 0Z" fill="#faa338"></path><path d="M75.7 0C65.6 4.5 55.6 9.1 55.2 17.9C54.8 26.7 64 39.8 61.3 44.5C58.5 49.2 43.6 45.4 36 49.5C28.3 53.6 28 65.6 23.2 71.3C18.4 77 9.2 76.4 0 75.7L0 0Z" fill="#f69709"></path></g></svg>