<svg id="visual" viewBox="0 0 900 600" width="900" height="600" xmlns="http://www.w3.org/2000/svg" xmlns:xlink="http://www.w3.org/1999/xlink" version="1.1"><path d="M0 121L53 139L106 145L159 127L212 145L265 127L318 157L371 109L424 139L476 115L529 127L582 145L635 121L688 133L741 121L794 127L847 133L900 127L900 0L847 0L794 0L741 0L688 0L635 0L582 0L529 0L476 0L424 0L371 0L318 0L265 0L212 0L159 0L106 0L53 0L0 0Z" fill="#f8942c"></path><path d="M0 157L53 169L106 181L159 157L212 169L265 163L318 181L371 139L424 163L476 139L529 151L582 169L635 151L688 163L741 145L794 163L847 157L900 163L900 125L847 131L794 125L741 119L688 131L635 119L582 143L529 125L476 113L424 137L371 107L318 155L265 125L212 143L159 125L106 143L53 137L0 119Z" fill="#fa9f44"></path><path d="M0 199L53 205L106 223L159 199L212 211L265 205L318 223L371 175L424 211L476 175L529 193L582 211L635 187L688 193L741 193L794 199L847 199L900 199L900 161L847 155L794 161L741 143L688 161L635 149L582 167L529 149L476 137L424 161L371 137L318 179L265 161L212 167L159 155L106 179L53 167L0 155Z" fill="#fcaa59"></path><path d="M0 259L53 271L106 301L159 271L212 271L265 259L318 283L371 259L424 289L476 253L529 253L582 271L635 247L688 259L741 253L794 283L847 283L900 271L900 197L847 197L794 197L741 191L688 191L635 185L582 209L529 191L476 173L424 209L371 173L318 221L265 203L212 209L159 197L106 221L53 203L0 197Z" fill="#feb46e"></path><path d="M0 379L53 367L106 403L159 379L212 373L265 373L318 385L371 373L424 391L476 361L529 379L582 373L635 373L688 391L741 391L794 397L847 397L900 385L900 269L847 281L794 281L741 251L688 257L635 245L582 269L529 251L476 251L424 287L371 257L318 281L265 257L212 269L159 269L106 299L53 269L0 257Z" fill="#ffbf82"></path><path d="M0 409L53 391L106 427L159 409L212 403L265 397L318 415L371 397L424 415L476 391L529 403L582 397L635 403L688 421L741 421L794 421L847 421L900 415L900 383L847 395L794 395L741 389L688 389L635 371L582 371L529 377L476 359L424 389L371 371L318 383L265 371L212 371L159 377L106 401L53 365L0 377Z" fill="#ffc997"></path><path d="M0 439L53 415L106 451L159 439L212 433L265 427L318 439L371 421L424 445L476 421L529 433L582 427L635 433L688 445L741 451L794 445L847 451L900 439L900 413L847 419L794 419L741 419L688 419L635 401L582 395L529 401L476 389L424 413L371 395L318 413L265 395L212 401L159 407L106 425L53 389L0 407Z" fill="#ffd4ab"></path><path d="M0 475L53 469L106 487L159 487L212 481L265 481L318 493L371 475L424 487L476 469L529 487L582 475L635 481L688 481L741 487L794 487L847 493L900 481L900 437L847 449L794 443L741 449L688 443L635 431L582 425L529 431L476 419L424 443L371 419L318 437L265 425L212 431L159 437L106 449L53 413L0 437Z" fill="#ffdec0"></path><path d="M0 517L53 505L106 523L159 517L212 517L265 523L318 529L371 517L424 523L476 511L529 529L582 517L635 511L688 523L741 517L794 517L847 523L900 511L900 479L847 491L794 485L741 485L688 479L635 479L582 473L529 485L476 467L424 485L371 473L318 491L265 479L212 479L159 485L106 485L53 467L0 473Z" fill="#ffe9d5"></path><path d="M0 541L53 535L106 547L159 541L212 541L265 547L318 553L371 541L424 553L476 535L529 559L582 541L635 535L688 553L741 541L794 547L847 547L900 541L900 509L847 521L794 515L741 515L688 521L635 509L582 515L529 527L476 509L424 521L371 515L318 527L265 521L212 515L159 515L106 521L53 503L0 515Z" fill="#fff4ea"></path><path d="M0 601L53 601L106 601L159 601L212 601L265 601L318 601L371 601L424 601L476 601L529 601L582 601L635 601L688 601L741 601L794 601L847 601L900 601L900 539L847 545L794 545L741 539L688 551L635 533L582 539L529 557L476 533L424 551L371 539L318 551L265 545L212 539L159 539L106 545L53 533L0 539Z" fill="#ffffff"></path></svg>